<svg width="900" height="1125" viewBox="0 0 900 1125" xmlns="http://www.w3.org/2000/svg" role="img">
  <defs>
    <linearGradient id="bg" x1="0" y1="0" x2="900" y2="1125" gradientUnits="userSpaceOnUse">
      <stop offset="0" stop-color="#050b16"/>
      <stop offset="1" stop-color="#0c2038"/>
    </linearGradient>
    <radialGradient id="glow" cx="0.75" cy="0.2" r="0.9">
      <stop offset="0" stop-color="#14d4f4" stop-opacity="0.22"/>
      <stop offset="1" stop-color="#14d4f4" stop-opacity="0"/>
    </radialGradient>
    
    <pattern id="grid" width="34" height="34" patternUnits="userSpaceOnUse">
      <path d="M 34 0 L 0 0 0 34" fill="none" stroke="rgba(255,255,255,0.05)" stroke-width="1"/>
    </pattern>

  </defs>
  <rect width="900" height="1125" fill="url(#bg)"/>
  <rect width="900" height="1125" fill="url(#glow)"/>
  <rect width="900" height="1125" fill="url(#grid)"/>
  
    <g stroke="rgba(125,214,251,0.18)" stroke-width="1.5" fill="none">
      <path d="M0 780 C 220 720, 300 900, 900 840"/>
      <path d="M0 360 C 260 420, 420 260, 900 320"/>
    </g>
    <g transform="translate(450,470)">
      <rect x="-190" y="-140" width="380" height="280" rx="20" fill="rgba(255,255,255,0.045)" stroke="rgba(255,255,255,0.09)"/>
      <g transform="translate(-100,-40) scale(4.2)" fill="none" stroke="#7dd6fb" stroke-width="1.3" stroke-linecap="round" stroke-linejoin="round">
        <path d="M18 44h28 M22 44V21a7 7 0 0 1 7-7v0a7 7 0 0 1 7 7v23 M22 32h14"/>
      </g>
      <g transform="translate(20,20)" fill="none" stroke="#4deeff" stroke-width="1.3" stroke-linecap="round">
        <circle cx="0" cy="0" r="70" opacity="0.18"/>
        <circle cx="0" cy="0" r="100" opacity="0.1"/>
      </g>
    </g>
    <g transform="translate(120,880)" fill="none" stroke="#45c2ef" stroke-width="1.4" stroke-linecap="round" stroke-linejoin="round" opacity="0.55">
      <rect x="-4" y="-4" width="56" height="56" rx="10" fill="rgba(20,212,244,0.08)" stroke="rgba(255,255,255,0.1)"/>
      <g transform="scale(1.9)"><path d="M14.7 6.3a4 4 0 0 1-5.4 5.4L5 16l2 2 4.3-4.3a4 4 0 0 1 5.4-5.4l-2.6 2.6-2-2 2.6-2.6z"/></g>
    </g>
    <text x="60" y="1060" font-family="'Space Grotesk', Arial, sans-serif" font-size="26" font-weight="700" fill="#ffffff" opacity="0.9">Certified AC Technician</text>
    <text x="60" y="1088" font-family="Arial, sans-serif" font-size="14" letter-spacing="2" fill="#7dd6fb" opacity="0.6">ILLUSTRATIVE DEMO GRAPHIC</text>
    
</svg>